<?xml version="1.0" encoding="UTF-8" standalone="no"?>
<!DOCTYPE svg PUBLIC "-//W3C//DTD SVG 1.1//EN" "http://www.w3.org/Graphics/SVG/1.1/DTD/svg11.dtd">
<svg xmlns="http://www.w3.org/2000/svg" version="1.1" viewBox="0.00 0.00 800.00 501.00">
<path fill="#000000" d="
  M 438.34 161.46
  L 437.32 160.15
  Q 436.97 159.72 437.09 159.17
  Q 437.99 154.97 440.68 151.67
  Q 441.02 151.26 441.54 151.14
  C 444.09 150.54 445.77 149.49 448.45 149.90
  Q 453.49 150.67 455.02 150.06
  Q 459.60 148.23 464.52 147.43
  A 1.10 1.08 10.4 0 0 465.30 146.90
  C 468.62 141.34 469.86 132.91 471.43 126.60
  C 472.06 124.07 473.45 121.18 474.14 118.35
  A 0.57 0.56 35.7 0 0 474.06 117.90
  L 471.69 114.23
  A 0.63 0.62 -49.4 0 1 471.65 113.62
  Q 475.16 106.12 478.71 98.73
  Q 479.39 97.30 478.83 95.66
  A 1.07 1.07 0.0 0 0 478.19 94.99
  C 474.83 93.69 470.67 91.60 470.80 87.56
  Q 470.80 87.33 472.16 81.43
  Q 474.42 71.65 477.01 61.97
  C 479.49 52.70 497.91 58.38 502.67 61.31
  C 506.78 63.85 504.09 74.63 503.46 78.85
  A 1.76 1.76 0.0 0 0 504.25 80.58
  L 517.82 89.27
  A 1.72 1.72 0.0 0 1 518.30 91.70
  Q 513.47 98.64 509.56 106.13
  Q 505.40 114.10 503.17 117.37
  Q 499.45 122.84 495.08 128.19
  A 2.28 2.27 29.8 0 1 492.51 128.88
  C 489.95 127.92 488.45 129.67 487.12 131.75
  C 485.05 135.00 475.96 148.22 480.20 151.16
  Q 480.60 151.44 481.08 151.40
  C 484.64 151.08 495.79 149.57 499.11 153.21
  A 1.37 1.36 -67.1 0 1 499.47 154.11
  Q 499.97 176.00 499.82 181.75
  Q 499.65 187.98 502.59 192.74
  A 1.53 1.49 35.5 0 1 502.78 193.78
  Q 502.43 195.61 503.53 196.99
  Q 504.23 197.86 504.95 197.01
  L 509.89 191.12
  A 0.53 0.51 -75.9 0 1 510.13 190.97
  Q 515.92 189.19 516.83 194.72
  Q 517.86 200.99 514.62 205.64
  Q 513.35 207.45 509.22 210.15
  Q 501.65 215.10 496.01 222.26
  C 495.50 222.91 494.13 223.70 493.31 223.78
  C 483.88 224.77 478.90 230.90 473.64 238.10
  C 471.44 241.11 474.36 243.47 475.97 245.73
  A 2.23 2.22 -31.4 0 1 475.18 248.99
  C 472.38 250.45 467.74 253.20 467.37 256.76
  A 1.59 1.59 0.0 0 0 468.96 258.51
  Q 479.01 258.45 488.00 257.99
  Q 491.09 257.84 493.69 256.23
  Q 494.14 255.95 494.16 255.42
  L 494.26 253.15
  A 1.20 1.18 -3.9 0 1 495.26 252.02
  Q 542.96 244.51 590.31 236.32
  C 592.90 235.87 594.49 237.53 596.95 236.81
  C 599.58 236.03 605.53 234.91 607.03 232.61
  Q 607.31 232.19 607.21 231.70
  Q 605.54 222.60 605.94 213.41
  C 606.20 207.33 607.61 202.76 612.90 199.89
  A 1.54 1.54 0.0 0 0 612.86 197.16
  C 607.55 194.50 602.30 191.70 596.75 189.37
  Q 577.89 181.48 559.12 173.38
  Q 550.41 169.62 541.23 164.09
  Q 539.34 162.95 539.05 161.13
  Q 538.96 160.58 539.42 160.27
  Q 541.88 158.58 544.26 159.38
  Q 571.10 168.46 598.44 182.54
  Q 604.04 185.42 616.65 190.10
  C 619.26 191.07 621.82 190.80 622.69 187.92
  C 624.59 181.64 627.25 179.39 633.78 179.93
  Q 639.74 180.42 641.10 187.03
  C 641.85 190.74 648.05 187.26 649.93 186.62
  Q 676.69 177.47 705.01 176.07
  Q 713.66 175.64 737.05 176.07
  C 743.93 176.20 750.83 177.37 757.76 178.17
  Q 764.30 178.91 768.30 183.88
  A 1.11 1.10 -20.8 0 1 767.49 185.67
  Q 749.25 186.56 731.45 191.30
  Q 718.98 194.62 706.53 198.00
  C 690.65 202.32 677.20 204.96 661.81 206.36
  A 2.02 2.01 85.1 0 0 659.99 208.53
  L 661.20 222.98
  A 2.06 2.06 0.0 0 0 663.02 224.86
  C 668.61 225.51 678.96 226.80 682.28 231.63
  Q 682.56 232.04 682.51 232.53
  C 682.10 236.50 682.83 241.28 681.24 244.83
  C 679.28 249.24 676.07 255.21 671.27 256.59
  C 651.57 262.29 633.80 268.54 612.87 268.14
  Q 612.33 268.13 611.84 267.88
  Q 610.02 266.94 608.01 266.82
  Q 607.47 266.79 607.11 267.19
  C 603.13 271.62 594.53 274.01 588.94 274.79
  A 0.71 0.71 0.0 0 1 588.31 273.62
  Q 592.72 268.65 595.44 262.63
  Q 596.40 260.49 594.07 260.72
  C 559.71 264.17 525.09 271.32 491.65 279.79
  Q 485.23 281.42 474.49 286.01
  Q 470.76 287.61 467.87 290.10
  Q 457.93 298.69 450.52 309.01
  A 3.28 3.27 56.5 0 0 449.99 311.63
  C 451.94 320.21 457.77 327.75 463.58 334.18
  Q 466.62 337.55 477.76 348.27
  Q 480.88 351.27 484.52 352.15
  C 490.13 353.52 501.02 357.01 505.52 352.29
  Q 505.87 351.92 505.91 351.42
  C 506.82 340.21 516.97 338.66 524.99 344.30
  A 1.46 1.45 -29.2 0 0 525.95 344.57
  Q 527.79 344.42 528.90 342.90
  Q 541.96 325.01 551.08 314.83
  C 562.13 302.51 570.45 293.37 577.88 281.97
  Q 578.14 281.57 578.60 281.40
  C 582.33 280.06 587.16 280.41 588.68 284.34
  Q 589.43 286.27 588.32 289.07
  C 577.57 316.24 553.20 336.90 536.76 357.23
  Q 535.50 358.79 536.80 359.93
  Q 537.37 360.43 538.92 360.81
  Q 548.61 363.18 551.14 373.80
  Q 553.55 383.88 554.03 387.40
  Q 554.10 387.85 554.83 388.97
  Q 555.27 389.65 555.97 390.27
  Q 581.35 413.04 606.34 436.25
  C 614.61 443.93 622.47 449.72 631.50 455.51
  A 0.87 0.86 -32.7 0 1 631.15 457.09
  C 624.40 458.06 617.22 458.07 610.93 454.83
  C 594.57 446.41 581.78 435.66 565.52 424.52
  Q 562.89 422.72 557.18 417.54
  Q 556.24 416.69 555.74 417.85
  L 555.58 418.22
  A 1.42 1.41 26.1 0 0 556.20 420.02
  C 560.88 422.59 561.86 425.88 561.89 431.40
  C 561.95 441.30 565.72 453.06 553.10 457.67
  C 545.56 460.41 537.67 464.53 530.96 459.59
  Q 524.69 454.98 518.65 450.04
  C 517.56 449.15 515.76 448.03 514.41 447.67
  Q 505.68 445.34 503.98 436.23
  C 503.59 434.09 500.56 432.29 498.17 431.27
  Q 491.85 428.55 488.63 422.50
  Q 487.65 420.66 487.29 417.18
  C 486.74 411.92 485.02 408.85 487.21 402.89
  Q 487.54 402.02 486.52 400.39
  Q 481.16 391.84 474.24 384.54
  Q 473.87 384.14 473.33 384.17
  Q 441.72 386.01 426.50 384.94
  Q 403.16 383.30 381.75 383.45
  C 377.85 383.48 370.09 390.37 366.76 392.81
  C 364.46 394.50 362.28 395.10 359.29 394.79
  C 353.10 394.17 348.64 392.77 345.02 387.91
  C 342.95 385.14 331.11 383.05 327.57 382.32
  C 321.26 381.03 303.20 384.43 300.11 377.06
  Q 298.08 372.23 298.58 368.85
  C 299.17 364.87 303.88 359.65 301.72 354.05
  Q 301.56 353.62 301.16 353.41
  Q 296.16 350.77 291.29 350.87
  C 289.33 350.90 288.44 350.33 288.05 348.33
  C 286.42 340.00 287.33 330.47 288.73 322.19
  A 1.57 1.57 0.0 0 0 287.02 320.36
  Q 259.79 323.16 232.96 328.58
  A 1.28 1.27 -13.4 0 0 231.98 330.16
  Q 232.88 333.42 233.66 336.95
  C 234.68 341.62 231.30 345.16 228.06 348.32
  Q 226.74 349.60 225.55 349.88
  Q 224.98 350.01 224.55 349.60
  C 220.84 346.03 210.81 333.96 205.91 334.97
  A 2.06 2.05 -9.9 0 0 204.29 337.27
  C 204.67 340.04 205.55 343.62 201.98 344.99
  Q 194.78 347.73 187.48 350.19
  C 182.96 351.71 182.50 355.92 176.00 355.93
  Q 166.41 355.95 156.86 356.64
  C 151.19 357.06 146.82 356.66 141.52 355.97
  C 135.46 355.18 130.20 351.17 126.18 346.82
  C 123.34 343.75 119.79 334.60 122.29 330.73
  C 125.33 326.01 135.10 321.18 140.26 319.15
  A 1.85 1.85 0.0 0 0 141.39 316.97
  Q 139.40 309.04 138.45 301.65
  C 138.10 298.92 138.64 296.67 139.25 294.07
  A 1.20 1.20 0.0 0 0 138.00 292.59
  C 124.01 293.52 113.01 296.30 96.89 298.61
  C 84.55 300.38 70.22 303.16 56.77 304.91
  C 49.79 305.81 41.56 307.79 33.76 308.52
  C 29.43 308.92 26.87 309.39 23.84 306.99
  A 1.39 1.39 0.0 0 1 24.62 304.51
  Q 28.97 304.27 33.47 303.84
  Q 33.75 303.81 42.21 302.48
  C 48.25 301.52 53.44 302.31 60.33 300.44
  Q 65.49 299.04 69.27 298.43
  C 79.78 296.74 90.20 294.82 100.76 293.47
  C 105.05 292.93 108.88 291.39 113.13 291.02
  Q 125.85 289.93 141.84 285.51
  C 144.98 284.64 145.75 284.60 147.55 281.60
  Q 148.81 279.50 150.24 277.52
  C 151.17 276.24 150.59 272.05 151.26 270.15
  C 153.53 263.77 159.31 265.44 164.47 263.94
  Q 164.97 263.79 165.28 263.38
  Q 188.91 231.53 226.27 218.56
  C 230.12 217.23 232.93 217.02 236.74 217.72
  Q 238.29 218.01 238.62 218.63
  Q 239.13 219.60 238.30 220.32
  Q 232.33 225.52 227.05 231.12
  C 219.65 238.99 212.23 250.49 206.14 258.39
  Q 197.28 269.90 185.77 278.94
  A 1.38 1.38 0.0 0 0 185.80 281.13
  C 189.39 283.80 191.74 287.36 195.57 289.83
  C 202.77 294.48 209.06 299.40 215.33 305.24
  A 1.22 1.21 65.0 0 0 216.20 305.56
  C 219.51 305.38 223.58 304.38 225.85 304.05
  Q 276.86 296.52 295.88 292.90
  C 298.73 292.36 298.22 287.65 301.82 286.50
  Q 307.22 284.78 308.94 283.20
  Q 321.90 271.25 330.84 261.58
  Q 334.33 257.80 336.48 252.21
  A 1.51 1.49 85.9 0 1 337.11 251.47
  Q 345.13 246.73 351.40 239.92
  Q 351.43 239.89 352.50 239.00
  C 353.49 238.19 353.42 237.03 352.61 236.05
  Q 344.87 226.65 336.05 218.27
  A 1.11 1.10 64.1 0 0 335.17 217.96
  C 332.52 218.23 330.59 218.36 328.03 217.30
  Q 323.74 215.53 319.42 213.87
  C 314.08 211.83 310.84 209.69 309.67 204.24
  Q 309.56 203.75 309.13 203.48
  C 305.73 201.36 302.68 201.52 302.76 196.42
  Q 302.88 188.05 298.99 180.88
  A 0.84 0.83 -26.4 0 0 297.91 180.52
  Q 279.49 189.01 262.14 197.99
  Q 256.19 201.08 245.70 208.45
  C 244.53 209.27 243.45 208.33 242.31 207.43
  Q 237.95 204.01 241.77 198.77
  Q 247.94 190.32 251.43 186.69
  Q 271.99 165.27 299.90 155.10
  Q 301.26 154.60 302.13 154.00
  A 1.56 1.55 48.7 0 0 302.28 151.57
  C 296.35 146.20 293.09 140.51 287.91 131.99
  C 284.62 126.58 280.62 122.98 275.99 119.03
  A 1.07 1.07 0.0 0 1 276.30 117.21
  C 280.45 115.66 285.01 115.26 289.58 115.93
  C 306.88 118.45 316.05 128.13 325.13 142.33
  C 326.77 144.90 329.41 146.10 330.80 148.85
  A 2.56 2.55 79.1 0 0 332.84 150.24
  Q 338.12 150.72 343.53 150.58
  Q 352.95 150.33 353.98 150.33
  C 368.00 150.31 382.86 148.86 395.86 148.66
  Q 416.35 148.34 436.65 147.61
  Q 437.37 147.58 436.90 148.13
  L 436.48 148.62
  A 1.57 1.56 -71.1 0 1 435.40 149.15
  C 410.15 150.83 384.79 151.11 359.51 152.35
  Q 350.94 152.77 342.19 154.26
  Q 339.32 154.75 341.36 156.83
  Q 341.77 157.25 342.41 159.11
  Q 344.68 165.78 345.62 172.75
  Q 346.43 178.71 341.47 183.16
  C 340.06 184.42 340.73 186.32 342.33 187.25
  Q 344.98 188.77 347.40 190.28
  A 3.27 3.26 -78.5 0 1 348.90 192.55
  C 349.37 195.56 349.27 200.36 351.45 202.83
  Q 359.45 211.92 368.51 220.74
  A 2.07 2.07 0.0 0 0 371.31 220.83
  C 378.61 214.51 386.44 207.32 391.81 199.77
  C 395.20 194.99 400.59 195.42 404.85 191.93
  Q 413.83 184.54 422.27 176.59
  C 425.92 173.15 430.19 169.58 432.49 165.50
  Q 434.42 162.07 437.99 162.17
  Q 438.92 162.19 438.34 161.46
  Z
  M 356.28 308.61
  A 2.37 2.37 0.0 0 0 354.41 305.32
  L 349.28 304.66
  A 2.37 2.37 0.0 0 0 346.72 306.30
  L 343.31 317.16
  A 2.37 2.37 0.0 0 0 345.58 320.24
  L 349.70 320.24
  A 2.37 2.37 0.0 0 0 351.88 318.81
  L 356.28 308.61
  Z
  M 360.0713 316.1004
  A 1.41 1.41 0.0 0 0 359.6533 314.1507
  L 359.5693 314.0963
  A 1.41 1.41 0.0 0 0 357.6196 314.5143
  L 353.7087 320.5596
  A 1.41 1.41 0.0 0 0 354.1267 322.5093
  L 354.2107 322.5637
  A 1.41 1.41 0.0 0 0 356.1604 322.1457
  L 360.0713 316.1004
  Z
  M 396.45 360.51
  C 410.93 357.02 425.51 354.69 440.13 351.94
  Q 440.51 351.87 440.25 351.58
  Q 433.18 343.57 424.43 337.54
  C 419.95 334.45 417.29 332.25 412.77 336.28
  C 408.94 339.69 404.40 344.94 401.16 345.64
  C 392.43 347.52 386.03 355.46 381.67 363.04
  A 0.33 0.33 0.0 0 0 382.09 363.51
  Q 385.74 361.91 389.66 361.48
  Q 394.66 360.94 396.45 360.51
  Z
  M 338.06 358.37
  L 331.71 358.74
  A 0.79 0.79 0.0 0 0 330.97 359.57
  L 330.98 359.83
  A 4.33 3.88 86.7 0 0 335.10 363.93
  L 335.28 363.92
  A 4.33 3.88 86.7 0 0 338.91 359.37
  L 338.89 359.11
  A 0.79 0.79 0.0 0 0 338.06 358.37
  Z"
/>
</svg>
